<svg width="24" height="24" viewBox="0 0 24 24" fill="none" xmlns="http://www.w3.org/2000/svg">
<path fill-rule="evenodd" clip-rule="evenodd" d="M12 4C7.58873 4 4 7.58873 4 12C4 16.4113 7.58873 20 12 20C16.4113 20 20 16.4113 20 12C20 7.58873 16.4113 4 12 4ZM12 18.2514C8.55291 18.2514 5.74863 15.4471 5.74863 12C5.74863 8.55308 8.55291 5.74863 12 5.74863C15.4471 5.74863 18.2514 8.55308 18.2514 12C18.2514 15.4471 15.4471 18.2514 12 18.2514ZM12.6925 8.65662V12.0096L15.0181 14.3352C15.2829 14.5997 15.2827 15.0289 15.0181 15.2936C14.7536 15.5584 14.3245 15.5584 14.0597 15.2936L11.5356 12.7696C11.3948 12.6289 11.3313 12.4417 11.3402 12.2574C11.34 12.2527 11.3393 12.248 11.3387 12.2434C11.3379 12.2377 11.3371 12.232 11.3371 12.2261V8.65662C11.3371 8.28224 11.6405 7.97886 12.0149 7.97886C12.3891 7.97886 12.6925 8.28224 12.6925 8.65662Z" fill="black"/>
<mask id="mask0_0_517" style="mask-type:luminance" maskUnits="userSpaceOnUse" x="4" y="4" width="16" height="16">
<path fill-rule="evenodd" clip-rule="evenodd" d="M12 4C7.58873 4 4 7.58873 4 12C4 16.4113 7.58873 20 12 20C16.4113 20 20 16.4113 20 12C20 7.58873 16.4113 4 12 4ZM12 18.2514C8.55291 18.2514 5.74863 15.4471 5.74863 12C5.74863 8.55308 8.55291 5.74863 12 5.74863C15.4471 5.74863 18.2514 8.55308 18.2514 12C18.2514 15.4471 15.4471 18.2514 12 18.2514ZM12.6925 8.65662V12.0096L15.0181 14.3352C15.2829 14.5997 15.2827 15.0289 15.0181 15.2936C14.7536 15.5584 14.3245 15.5584 14.0597 15.2936L11.5356 12.7696C11.3948 12.6289 11.3313 12.4417 11.3402 12.2574C11.34 12.2527 11.3393 12.248 11.3387 12.2434C11.3379 12.2377 11.3371 12.232 11.3371 12.2261V8.65662C11.3371 8.28224 11.6405 7.97886 12.0149 7.97886C12.3891 7.97886 12.6925 8.28224 12.6925 8.65662Z" fill="white"/>
</mask>
<g mask="url(#mask0_0_517)">
<rect width="24" height="24" fill="#C2D1D9"/>
</g>
</svg>
