<svg width="35" height="35" viewBox="0 0 35 35" fill="none" xmlns="http://www.w3.org/2000/svg">
<path fill-rule="evenodd" clip-rule="evenodd" d="M22.2667 18.3C22.8001 17.9 22.8001 17.1 22.2667 16.7L16.1834 12.1375C15.5242 11.6431 14.5834 12.1135 14.5834 12.9375V22.0625C14.5834 22.8866 15.5242 23.3569 16.1834 22.8625L22.2667 18.3ZM2.91675 17.5C2.91675 25.55 9.45008 32.0834 17.5001 32.0834C25.5501 32.0834 32.0834 25.55 32.0834 17.5C32.0834 9.45002 25.5501 2.91669 17.5001 2.91669C9.45008 2.91669 2.91675 9.45002 2.91675 17.5ZM5.83341 17.5C5.83341 11.0688 11.0688 5.83335 17.5001 5.83335C23.9313 5.83335 29.1667 11.0688 29.1667 17.5C29.1667 23.9313 23.9313 29.1667 17.5001 29.1667C11.0688 29.1667 5.83341 23.9313 5.83341 17.5Z" fill="#C2D1D9"/>
<mask id="mask0_0_382" style="mask-type:luminance" maskUnits="userSpaceOnUse" x="2" y="2" width="31" height="31">
<path fill-rule="evenodd" clip-rule="evenodd" d="M22.2667 18.3C22.8001 17.9 22.8001 17.1 22.2667 16.7L16.1834 12.1375C15.5242 11.6431 14.5834 12.1135 14.5834 12.9375V22.0625C14.5834 22.8866 15.5242 23.3569 16.1834 22.8625L22.2667 18.3ZM2.91675 17.5C2.91675 25.55 9.45008 32.0834 17.5001 32.0834C25.5501 32.0834 32.0834 25.55 32.0834 17.5C32.0834 9.45002 25.5501 2.91669 17.5001 2.91669C9.45008 2.91669 2.91675 9.45002 2.91675 17.5ZM5.83341 17.5C5.83341 11.0688 11.0688 5.83335 17.5001 5.83335C23.9313 5.83335 29.1667 11.0688 29.1667 17.5C29.1667 23.9313 23.9313 29.1667 17.5001 29.1667C11.0688 29.1667 5.83341 23.9313 5.83341 17.5Z" fill="white"/>
</mask>
<g mask="url(#mask0_0_382)">
<rect width="35" height="35" fill="#191919"/>
</g>
</svg>
