<svg width="30" height="30" viewBox="0 0 30 30" fill="none" xmlns="http://www.w3.org/2000/svg">
<circle cx="14.8935" cy="14.8933" r="14.8933" fill="#55ACEE"/>
<path d="M21.9715 11.2632C22.7066 10.8228 23.2707 10.1259 23.537 9.29411C22.8492 9.70217 22.0869 9.99818 21.2764 10.1577C20.627 9.46615 19.7018 9.03394 18.6773 9.03394C16.7116 9.03394 15.1174 10.6282 15.1174 12.5938C15.1174 12.8729 15.149 13.1445 15.21 13.4052C12.2515 13.2568 9.62818 11.8396 7.87225 9.68517C7.56588 10.2108 7.39013 10.8228 7.39013 11.4751C7.39013 12.7099 8.01906 13.8 8.97375 14.4382C8.39048 14.4199 7.84119 14.2598 7.36145 13.9924C7.36119 14.0076 7.36119 14.0227 7.36119 14.0376C7.36119 15.7624 8.5888 17.2011 10.217 17.5279C9.91862 17.6097 9.60349 17.653 9.27933 17.653C9.04942 17.653 8.82667 17.6309 8.60951 17.5895C9.06243 19.0035 10.3769 20.0328 11.935 20.0617C10.7164 21.0167 9.18163 21.5856 7.51331 21.5856C7.22659 21.5856 6.94252 21.5689 6.66455 21.5357C8.23915 22.5461 10.1108 23.1353 12.1211 23.1353C18.6691 23.1353 22.2499 17.7108 22.2499 13.0061C22.2499 12.8519 22.2465 12.6982 22.2396 12.5458C22.9357 12.044 23.5392 11.4172 24.0162 10.7033C23.378 10.9863 22.6915 11.1777 21.9715 11.2632Z" fill="#F1F2F2"/>
</svg>
