<svg width="20" height="20" viewBox="0 0 20 20" fill="none" xmlns="http://www.w3.org/2000/svg">
<path fill-rule="evenodd" clip-rule="evenodd" d="M10 0C12.6522 0 15.1957 1.05357 17.0711 2.92893C18.9464 4.8043 20 7.34784 20 10C20 15.5228 15.5228 20 10 20C8.03 20 6.2 19.43 4.65 18.45L0 20L1.55 15.35C0.57 13.8 0 11.97 0 10C0 4.47715 4.47715 0 10 0ZM14.8485 12.0108L14.8487 12.0108C15.0422 12.11 15.1669 12.1739 15.21 12.26C15.27 12.37 15.25 12.87 15 13.44C14.8 14 13.76 14.54 13.3 14.56C13.2193 14.5635 13.1524 14.5769 13.0835 14.5906C12.7601 14.6553 12.393 14.7287 10.34 13.83C8.05109 12.828 6.59873 10.4994 6.28587 9.99777L6.28586 9.99776C6.25838 9.95369 6.23969 9.92373 6.23 9.91C6.11 9.74 5.27 8.53 5.31 7.3C5.35956 6.09085 5.98866 5.51037 6.25297 5.26649L6.26 5.26C6.5 5 6.77 4.97 6.94 5H7.41C7.42384 5 7.43819 4.99949 7.45299 4.99896C7.59858 4.99378 7.78753 4.98706 7.96 5.45L8.65 7.32C8.71 7.45 8.75 7.6 8.66 7.76L8.39 8.17L8 8.59L7.99121 8.59878C7.87335 8.7164 7.74341 8.84608 7.88 9.09C8 9.35 8.5 10.18 9.2 10.87C9.96259 11.6075 10.6479 11.9306 10.9912 12.0924C11.0576 12.1237 11.1111 12.1489 11.15 12.17C11.39 12.31 11.54 12.29 11.69 12.13L12.5 11.19C12.6874 10.9434 12.8457 10.9984 13.0708 11.0768L13.08 11.08L14.75 11.96C14.7846 11.978 14.8175 11.9948 14.8485 12.0108ZM2 10C2 5.58172 5.58172 2 10 2C14.4183 2 18 5.58172 18 10C18 14.4183 14.4183 18 10 18C8.28 18 6.69 17.46 5.39 16.54L2.5 17.5L3.46 14.61C2.54 13.31 2 11.72 2 10Z" fill="#004071"/>
</svg>
